
<svg xmlns="http://www.w3.org/2000/svg" version="1.1" xmlns:xlink="http://www.w3.org/1999/xlink" preserveAspectRatio="none" x="0px" y="0px" width="71px" height="93px" viewBox="0 0 71 93">
<defs>
<g id="Layer0_0_FILL">
<path fill="#000000" stroke="none" d="
M 259.7 345.45
L 253.5 345.45 253.5 336.3 249.7 336.3 249.7 345.45 245.05 345.45 245.05 348.6 249.7 348.6 249.7 372.75
Q 249.75 376.35 251.2 377.85 252.7 379.35 255.55 379.3 256.95 379.25 258.1 379 259.25 378.7 259.95 378.5
L 259.95 375.4
Q 259.15 375.6 258.4 375.75 257.6 375.85 256.8 375.85 255.25 375.85 254.55 375.4 253.85 374.9 253.7 373.85 253.5 372.85 253.5 371.25
L 253.5 348.6 259.7 348.6 259.7 345.45
M 240.95 344.55
Q 236.85 344.5 234.35 346.1 231.75 347.7 230.25 351.6
L 230.1 351.6 230.1 345.45 226.3 345.45 226.3 378.4 230.1 378.4 230.1 362.25
Q 230.05 358.5 231 355.4 231.95 352.3 234.35 350.5 236.7 348.65 240.95 348.7
L 240.95 344.55
M 194.25 369.35
Q 193 366.4 193.05 362.8
L 218.6 362.8
Q 218.55 353.9 214.75 349.25 210.9 344.6 204.1 344.55 199.35 344.6 196 346.95 192.6 349.3 190.8 353.25 189 357.2 188.95 362.05 188.95 366.95 190.55 370.85 192.15 374.75 195.5 377 198.85 379.25 204.1 379.3 208.3 379.25 211.1 377.85 213.95 376.4 215.65 373.9 217.4 371.45 218.35 368.3
L 214.1 368.3
Q 213.15 371.95 210.5 373.9 207.85 375.85 204.1 375.85 200.4 375.8 197.95 374.05 195.5 372.3 194.25 369.35
M 194.75 353.85
Q 196.05 351.2 198.4 349.6 200.75 348.05 204.1 348 207.55 348.05 209.85 349.6 212.15 351.15 213.35 353.75 214.5 356.4 214.5 359.65
L 193.05 359.65
Q 193.4 356.45 194.75 353.85
M 161.05 347.2
Q 158.05 349.8 158 353.95 158.05 357.15 159.55 359 161.05 360.8 163.45 361.7 165.85 362.6 168.55 363.15 171.25 363.7 173.65 364.3 176.05 364.9 177.55 366.15 179.05 367.4 179.1 369.75 179.1 371.35 178.25 372.75 177.35 374.1 175.55 375 173.75 375.8 171 375.85 166.7 375.9 164.35 374.1 161.95 372.3 161.1 368.1
L 157.2 368.1
Q 157.4 371.25 158.9 373.75 160.4 376.3 163.1 377.8 165.9 379.25 169.75 379.3 173.7 379.3 176.7 378.2 179.7 377.15 181.4 375 183.15 372.85 183.2 369.65 183.1 366.55 181.65 364.75 180.1 362.85 177.7 361.9 175.35 360.9 172.6 360.3 169.9 359.65 167.55 359 165.15 358.25 163.6 357.05 162.15 355.85 162.05 353.65 162.05 351.05 163.95 349.55 165.85 348.05 169.5 348 173.1 347.95 175.5 349.55 177.85 351.15 178.45 354.9
L 182.3 354.9
Q 181.55 349.4 178.25 346.95 174.95 344.5 169.6 344.55 164.05 344.65 161.05 347.2
M 145.75 366.15
Q 147.25 367.4 147.3 369.75 147.3 371.35 146.45 372.75 145.55 374.1 143.75 375 141.95 375.8 139.2 375.85 134.9 375.9 132.55 374.1 130.15 372.3 129.3 368.1
L 125.4 368.1
Q 125.6 371.25 127.1 373.75 128.6 376.3 131.3 377.8 134.1 379.25 137.95 379.3 141.9 379.3 144.9 378.2 147.9 377.15 149.6 375 151.35 372.85 151.4 369.65 151.3 366.55 149.85 364.75 148.3 362.85 145.9 361.9 143.55 360.9 140.8 360.3 138.1 359.65 135.75 359 133.35 358.25 131.8 357.05 130.35 355.85 130.25 353.65 130.25 351.05 132.15 349.55 134.05 348.05 137.7 348 141.3 347.95 143.7 349.55 146.05 351.15 146.65 354.9
L 150.5 354.9
Q 149.75 349.4 146.45 346.95 143.15 344.5 137.8 344.55 132.25 344.65 129.25 347.2 126.25 349.8 126.2 353.95 126.25 357.15 127.75 359 129.25 360.8 131.65 361.7 134.05 362.6 136.75 363.15 139.45 363.7 141.85 364.3 144.25 364.9 145.75 366.15
M 119.35 368.3
L 115.1 368.3
Q 114.15 371.95 111.5 373.9 108.85 375.85 105.1 375.85 101.4 375.8 98.95 374.05 96.5 372.3 95.25 369.35 94 366.4 94.05 362.8
L 119.6 362.8
Q 119.55 353.9 115.75 349.25 111.9 344.6 105.1 344.55 100.35 344.6 97 346.95 93.6 349.3 91.8 353.25 90 357.2 89.95 362.05 89.95 366.95 91.55 370.85 93.15 374.75 96.5 377 99.85 379.25 105.1 379.3 109.3 379.25 112.1 377.85 114.95 376.4 116.65 373.9 118.4 371.45 119.35 368.3
M 105.1 348
Q 108.55 348.05 110.85 349.6 113.15 351.15 114.35 353.75 115.5 356.4 115.5 359.65
L 94.05 359.65
Q 94.4 356.45 95.75 353.85 97.05 351.2 99.4 349.6 101.75 348.05 105.1 348
M 62 332.6
L 46.35 332.6 46.35 378.4 62 378.4
Q 65 378.45 67.95 378 70.9 377.55 73.5 376.35 76.1 375.15 78.2 372.8 80.3 370.5 81.5 367.6 82.7 364.75 83.25 361.6 83.75 358.5 83.75 355.4 83.8 352.3 83.15 348.65 82.45 345 80.8 341.65 79.1 338.3 76.15 336.05 72.9 333.75 69.35 333.15 65.85 332.55 62 332.6
M 71.55 338
Q 74.7 339.75 76.45 342.55 78.15 345.35 78.8 348.7 79.45 352.05 79.45 355.4 79.45 358.6 78.8 361.95 78.15 365.3 76.5 368.15 74.85 371 71.8 372.6 69.2 373.95 66.55 374.35 63.95 374.75 61.05 374.7
L 50.65 374.7 50.65 336.3 61.05 336.3
Q 63.95 336.25 66.7 336.6 69.45 336.95 71.55 338
M 295.9 147
Q 295.9 85.95 252.7 42.7 209.5 -0.45 148.45 -0.45 115.95 -0.45 88.5 11.8 85.4 13.2 82.25 14.75
L 82.2 14.8 82.15 14.8
Q 82.1 14.8 82 14.85 82 14.9 81.95 14.9 81.9 14.9 81.85 14.95 81.7 15 81.55 15.1 81.2 15.3 80.9 15.45 70.8 20.7 61.35 27.75 52.4 34.5 44.15 42.7 36.25 50.6 29.85 59.1 27.8 61.75 25.9 64.55 23 68.75 20.4 73.05 16.7 79.35 13.7 86 11.45 90.9 9.6 96 7.95 100.55 6.6 105.35 6.05 107.2 5.55 109.05 5.05 111.25 4.5 113.5 4 115.85 3.5 118.25 3 121.2 2.55 124.25 0.95 135.3 0.95 147 0.95 158.75 2.55 169.85 3 172.95 3.5 175.9 4 178.3 4.5 180.7 5.05 182.95 5.55 185.1 6.05 186.95 6.6 188.85 7.95 193.55 9.6 198.15 11.45 203.2 13.7 208.1 15.05 210.95 16.45 213.8 20.6 221.9 25.9 229.55 27.8 232.35 29.85 235.05 36.25 243.45 44.15 251.25 52.4 259.5 61.35 266.25 70.8 273.3 80.9 278.65 81.2 278.8 81.55 278.95 81.7 279.05 81.85 279.1 81.9 279.1 81.95 279.15
L 82 279.2
Q 82.1 279.25 82.15 279.25
L 82.2 279.3 82.25 279.3
Q 85.4 280.8 88.5 282.3 115.95 294.55 148.45 294.55 209.5 294.55 252.7 251.25 295.9 208.1 295.9 147
M 176.45 102.4
Q 182.8 103.9 187.85 108.9 195.1 116.2 195.1 126.4 195.1 130.3 194.05 133.75
L 203.75 133.75
Q 201.95 141.6 197.95 148.4 193.95 155.1 187.9 161 176.35 172.2 161.5 176
L 161.05 176
Q 155.5 176.75 149.6 176.85
L 149.6 180.55 150.15 180.55 150.15 201.65
Q 166.8 202.25 178.9 208.3 188.3 213.05 191.15 219.05 164.35 224.9 101.9 219.05 104.7 213.05 114.05 208.3 126.6 202.15 143.8 201.65
L 143.8 180.55 144.15 180.55 144.15 176.85
Q 137.4 176.75 131.2 176
L 130.75 176
Q 115.9 172.2 104.25 161 98.2 155.1 94.3 148.4 90.3 141.7 88.5 134 88.45 133.85 88.45 133.75
L 96.75 133.75
Q 96.3 131.5 96.3 129.05 96.3 118.8 103.55 111.6 107.35 107.75 112.1 106
L 98.65 83.65 107.65 78.3 120.25 99.15
Q 122.25 95.85 125.15 92.95 134.4 83.7 147.5 83.7 160.55 83.7 169.75 92.95 174.1 97.25 176.45 102.4 Z"/>

<path fill="#FFFFFF" stroke="none" d="
M 145.2 133.75
Q 145.6 131.5 145.6 129.05 145.6 118.8 138.35 111.6 131.15 104.4 120.95 104.4 119.3 104.4 117.65 104.6 114.7 104.95 112.1 106 107.35 107.75 103.55 111.6 96.3 118.8 96.3 129.05 96.3 131.5 96.75 133.75
L 145.2 133.75
M 107.65 78.3
L 98.65 83.65 112.1 106
Q 114.7 104.95 117.65 104.6 118.65 101.75 120.25 99.15
L 107.65 78.3
M 203.75 133.75
L 194.05 133.75 146.65 133.75 145.2 133.75 96.75 133.75 88.45 133.75
Q 88.45 133.85 88.5 134 90.3 141.7 94.3 148.4 98.2 155.1 104.25 161 115.9 172.2 130.75 176
L 131.2 176
Q 137.4 176.75 144.15 176.85
L 144.15 180.55 143.8 180.55 143.8 201.65
Q 126.6 202.15 114.05 208.3 104.7 213.05 101.9 219.05 164.35 224.9 191.15 219.05 188.3 213.05 178.9 208.3 166.8 202.25 150.15 201.65
L 150.15 180.55 149.6 180.55 149.6 176.85
Q 155.5 176.75 161.05 176
L 161.5 176
Q 176.35 172.2 187.9 161 193.95 155.1 197.95 148.4 201.95 141.6 203.75 133.75
M 101.55 143.4
Q 102.3 144.75 103 146 113.2 163.2 129.55 166.3 113.2 163.2 103 146 102.3 144.75 101.55 143.4
M 170.35 101.7
Q 173.55 101.7 176.45 102.4 174.1 97.25 169.75 92.95 160.55 83.7 147.5 83.7 134.4 83.7 125.15 92.95 122.25 95.85 120.25 99.15 118.65 101.75 117.65 104.6 119.3 104.4 120.95 104.4 131.15 104.4 138.35 111.6 145.6 118.8 145.6 129.05 145.6 131.5 145.2 133.75
L 146.65 133.75
Q 145.6 130.3 145.6 126.4 145.6 116.2 152.8 108.9 160.05 101.7 170.35 101.7
M 187.85 108.9
Q 182.8 103.9 176.45 102.4 173.55 101.7 170.35 101.7 160.05 101.7 152.8 108.9 145.6 116.2 145.6 126.4 145.6 130.3 146.65 133.75
L 194.05 133.75
Q 195.1 130.3 195.1 126.4 195.1 116.2 187.85 108.9 Z"/>
</g>

<path id="Layer0_0_1_STROKES" stroke="#000000" stroke-width="3.2" stroke-linejoin="round" stroke-linecap="round" fill="none" d="
M 88.45 133.75
L 96.75 133.75
Q 96.3 131.5 96.3 129.05 96.3 118.8 103.55 111.6 107.35 107.75 112.1 106
L 98.65 83.65 107.65 78.3 120.25 99.15
Q 122.25 95.85 125.15 92.95 134.4 83.7 147.5 83.7 160.55 83.7 169.75 92.95 174.1 97.25 176.45 102.4 182.8 103.9 187.85 108.9 195.1 116.2 195.1 126.4 195.1 130.3 194.05 133.75
L 203.75 133.75
M 120.25 99.15
Q 118.65 101.75 117.65 104.6 119.3 104.4 120.95 104.4 131.15 104.4 138.35 111.6 145.6 118.8 145.6 129.05 145.6 131.5 145.2 133.75
L 146.65 133.75
Q 145.6 130.3 145.6 126.4 145.6 116.2 152.8 108.9 160.05 101.7 170.35 101.7 173.55 101.7 176.45 102.4
M 112.1 106
Q 114.7 104.95 117.65 104.6
M 101.55 143.4
Q 102.3 144.75 103 146 113.2 163.2 129.55 166.3
M 145.2 133.75
L 96.75 133.75
M 194.05 133.75
L 146.65 133.75"/>
</defs>

<g transform="matrix( 0.239166259765625, 0, 0, 0.239166259765625, 0.15,0.15) ">
<g transform="matrix( 1, 0, 0, 1, 0,0) ">
<use xlink:href="#Layer0_0_FILL"/>

<use xlink:href="#Layer0_0_1_STROKES"/>
</g>
</g>
</svg>
