
<svg xmlns="http://www.w3.org/2000/svg" version="1.1" xmlns:xlink="http://www.w3.org/1999/xlink" preserveAspectRatio="none" x="0px" y="0px" width="71px" height="93px" viewBox="0 0 71 93">
<defs>
<g id="Layer0_0_FILL">
<path fill="#000000" stroke="none" d="
M 199.2 351.95
Q 195.35 347.25 188.5 347.25 183.75 347.3 180.35 349.7 176.95 352 175.1 356 173.3 359.95 173.3 364.85 173.3 369.8 174.85 373.7 176.45 377.6 179.85 379.9 183.2 382.15 188.5 382.2 192.7 382.2 195.55 380.75 198.4 379.25 200.15 376.75 201.9 374.3 202.85 371.1
L 198.55 371.1
Q 197.6 374.8 194.95 376.75 192.3 378.75 188.5 378.75 184.8 378.7 182.35 376.95 179.85 375.2 178.6 372.2 177.35 369.25 177.35 365.6
L 203.1 365.6
Q 203.05 356.65 199.2 351.95
M 182.8 352.35
Q 185.1 350.75 188.5 350.7 191.95 350.75 194.3 352.3 196.6 353.85 197.8 356.5 199 359.15 199 362.45
L 177.35 362.45
Q 177.75 359.25 179.1 356.6 180.45 353.95 182.8 352.35
M 215.8 338.95
L 211.95 338.95 211.95 348.15 207.3 348.15 207.3 351.35 211.95 351.35 211.95 375.6
Q 211.95 379.25 213.45 380.75 214.95 382.25 217.8 382.2 219.25 382.2 220.4 381.9 221.55 381.6 222.25 381.45
L 222.25 378.3
Q 221.45 378.5 220.7 378.6 219.9 378.75 219.1 378.75 217.55 378.75 216.8 378.25 216.15 377.75 215.95 376.75 215.75 375.7 215.8 374.1
L 215.8 351.35 222 351.35 222 348.15 215.8 348.15 215.8 338.95
M 141.85 353.2
Q 144.25 351.35 148.55 351.4
L 148.55 347.25
Q 144.4 347.2 141.85 348.8 139.25 350.45 137.75 354.35
L 137.6 354.35 137.6 348.15 133.75 348.15 133.75 381.3 137.6 381.3 137.6 365.05
Q 137.6 361.25 138.5 358.15 139.5 355.05 141.85 353.2
M 158.9 348.15
L 155.05 348.15 155.05 381.3 158.9 381.3 158.9 365.05
Q 158.9 361.25 159.8 358.15 160.8 355.05 163.15 353.2 165.55 351.35 169.85 351.4
L 169.85 347.25
Q 165.7 347.2 163.15 348.8 160.55 350.45 159.05 354.35
L 158.9 354.35 158.9 348.15
M 119.75 349.6
Q 116.3 347.3 111.15 347.25 106.05 347.3 102.6 349.6 99.2 351.95 97.5 355.9 95.8 359.85 95.8 364.7 95.85 370.5 97.9 374.35 99.95 378.25 103.4 380.2 106.9 382.15 111.15 382.2 115.8 382.2 119.25 380 122.7 377.85 124.6 373.95 126.5 370 126.5 364.7 126.5 359.8 124.8 355.85 123.15 351.95 119.75 349.6
M 117.65 352.6
Q 120.15 354.45 121.25 357.6 122.4 360.75 122.4 364.7 122.45 368.35 121.3 371.5 120.15 374.7 117.65 376.7 115.15 378.7 111.15 378.75 107.5 378.7 104.95 376.95 102.45 375.2 101.15 372 99.9 368.9 99.9 364.7 99.85 361.1 101 357.9 102.15 354.75 104.65 352.75 107.15 350.75 111.15 350.7 115.2 350.75 117.65 352.6
M 66.85 381.3
L 66.85 359.3 89.9 359.3 89.9 355.6 66.85 355.6 66.85 338.95 92.2 338.95 92.2 335.2 62.5 335.2 62.5 381.3 66.85 381.3
M 266.9 58.8
Q 260.7 50.85 253.3 43.45 234.75 24.9 212.9 14.25 183.6 0 148.4 0 86.95 0 43.45 43.45 36.05 50.85 29.9 58.8 17.3 75.1 10 93.6 0 118.9 0 148.4 0 177.9 10 203.25 10.55 204.6 11.15 206 22 231.85 43.45 253.3 86.95 296.8 148.4 296.8 183.6 296.8 212.9 282.55 234.75 271.9 253.3 253.3 274.8 231.85 285.65 206 291.2 192.8 294 178.45 296.8 164 296.8 148.4 296.8 132.8 294 118.4 287.65 85.6 266.9 58.8
M 174.25 94.55
Q 180.35 88.55 190.3 86.2 200.35 83.9 208.4 86.6 211 87.45 212.9 88.65 215.7451171875 90.41953125 217.05 92.95
L 242.05 85.45 243 88.5 218.05 96
Q 219.091796875 101.853125 213.3 107.55 213.1 107.75 212.9 107.95 206.9 113.6 197.25 115.8 187.25 118.15 179.15 115.45 173.6091796875 113.6029296875 171.15 110.15
L 162.05 112.9
Q 162.437109375 118.199609375 157.15 123.4 152.25 128.25 144.7 130.7 142.95 131.25 141.1 131.7 131.15 134 123 131.35 118.2083984375 129.7130859375 115.75 126.85
L 104.1 130.4
Q 105.3728515625 136.375 99.4 142.25 93.4 148.2 83.35 150.55 73.4 152.85 65.25 150.2 59.50625 148.237890625 57.1 144.55
L 33.15 151.8 32.2 148.75 55.8 141.6
Q 55.7828125 141.4880859375 55.75 141.35 54.3 135.2 60.35 129.25 66.45 123.25 76.45 120.9 86.45 118.6 94.55 121.3 100.7080078125 123.352734375 103 127.4
L 114 124.05
Q 113.694921875 123.3201171875 113.5 122.5 112.05 116.35 118.1 110.4 124.2 104.4 134.2 102.05 139.9 100.75 144.95 101.05 148.8 101.3 152.3 102.45 159.3751953125 104.7646484375 161.35 109.8
L 169.75 107.25
Q 169.672265625 106.9537109375 169.6 106.65 168.2 100.5 174.25 94.55
M 212.9 118
Q 216.8 117.95 220.35 118.85 226.933203125 120.4759765625 229.45 124.55
L 253.8 115.25 255 118.2 230.65 127.5
Q 232.1064453125 133.28515625 226.75 139.4 221.6 145.25 212.9 148.25 212.15 148.5 211.35 148.75 201.55 151.85 193.25 149.75 187.609765625 148.3142578125 184.95 145.05
L 176 148.5
Q 176.782421875 153.726171875 171.9 159.3 167.4 164.45 160.05 167.5 158.3 168.15 156.5 168.75 146.75 171.75 138.45 169.7 133.5517578125 168.4234375 130.9 165.8
L 119.5 170.15
Q 121.22421875 176.0435546875 115.7 182.35 110.15 188.7 100.3 191.8 90.55 194.8 82.2 192.75 76.3470703125 191.2154296875 73.7 187.75
L 50.35 196.7 49.15 193.75 72.15 184.9
Q 72.1416015625 184.78046875 72.1 184.65 70.2 178.6 75.8 172.2 81.45 165.8 91.25 162.75 101.05 159.7 109.35 161.8 115.629296875 163.3984375 118.2 167.25
L 128.95 163.1
Q 128.5974609375 162.39609375 128.35 161.6 126.4 155.6 132 149.2 137.65 142.8 147.45 139.7 153.05 138 158.1 137.9 161.95 137.9 165.55 138.75 172.7818359375 140.5908203125 175.1 145.4
L 183.3 142.25
Q 183.19375 141.99375 183.1 141.7 181.25 135.65 186.8 129.25 192.5 122.85 202.25 119.8 207.85 118.05 212.9 118
M 138.5 211.85
Q 147.85 213.55 154.5 211.9 161.1 210.2 168.75 212.65 176.4 215.05 178.05 215.6 178.4 215.7 178.4 215.8 178.4 215.9 178.2 216 178.4 217.1 178.4 218.25 178.4 219.45 178.05 220.6 176.6 226.35 167.95 230.5 157.6 236.05 143.05 236.05 128.4 236.05 118.05 230.5 107.65 225.5 107.65 218.25 107.65 217.1 107.95 216 107.65 215.9 107.65 215.8 107.65 215.7 108.05 215.6 109.75 214.3 119.4 212.25 129.1 210.15 138.5 211.85
M 152.25 217.35
Q 147.85 217.4 143.05 217.4 128.4 217.4 118.05 216.9 109.3 216.5 107.95 216 107.65 217.1 107.65 218.25 107.65 225.5 118.05 230.5 128.4 236.05 143.05 236.05 157.6 236.05 167.95 230.5 176.6 226.35 178.05 220.6 178.4 219.45 178.4 218.25 178.4 217.1 178.2 216 176.75 216.5 167.95 216.9 161.1 217.25 152.25 217.35
M 157.55 140
Q 151.6 140.55 144.95 143.45 138.25 146.4 134.7 150.05 131.2 153.65 132.45 154.65 133.6 155.55 135.7 151.95 137.75 148.35 144.65 144.9 151.4 141.35 160.25 141.65 168.95 142 166.25 140.8 163.5 139.5 157.55 140
M 77.85 173
Q 74.4 176.6 75.6 177.55 76.8 178.5 78.85 174.9 80.9 171.3 87.75 167.8 94.55 164.3 103.35 164.6 112.15 164.9 109.4 163.7 106.6 162.45 100.65 162.95 94.75 163.5 88.05 166.4 81.4 169.35 77.85 173
M 214.1 121.7
Q 222.85 122.05 220.15 120.85 217.75 119.7 212.9 119.95 212.2 120 211.45 120.05 205.5 120.6 198.8 123.5 192.15 126.4 188.6 130.1 185.1 133.7 186.3 134.65 187.5 135.6 189.6 132 191.65 128.4 198.5 124.9 204.85 121.65 212.9 121.7 213.5 121.7 214.1 121.7
M 146.8 104.95
Q 155.5 105.9 152.85 104.5 150.2 103.05 144.25 103.1 138.3 103.2 131.4 105.6 124.55 108.05 120.75 111.45 117 114.8 118.15 115.85 119.25 116.85 121.6 113.45 123.9 110 131 107 138.05 104 146.8 104.95
M 73 124.3
Q 66.15 126.75 62.35 130.15 58.6 133.5 59.75 134.55 60.85 135.55 63.2 132.15 65.5 128.7 72.6 125.7 79.65 122.7 88.4 123.65 97.1 124.6 94.45 123.2 91.8 121.75 85.85 121.8 79.9 121.9 73 124.3
M 199.45 87.15
Q 193.5 87.25 186.6 89.65 179.75 92.1 175.95 95.5 172.2 98.85 173.35 99.9 174.45 100.9 176.8 97.5 179.1 94.05 186.2 91.05 193.25 88.05 202 89 210.7 89.95 208.05 88.55 205.4 87.1 199.45 87.15 Z"/>

<path fill="#FFFFFF" stroke="none" d="
M 178.05 215.6
Q 178.05 215.8 178.2 216 178.4 215.9 178.4 215.8 178.4 215.7 178.05 215.6
M 108.05 215.6
Q 107.65 215.7 107.65 215.8 107.65 215.9 107.95 216 107.95 215.8 108.05 215.6
M 154.5 211.9
Q 147.85 213.55 138.5 211.85 129.1 210.15 119.4 212.25 109.75 214.3 108.05 215.6 107.95 215.8 107.95 216 109.3 216.5 118.05 216.9 128.4 217.4 143.05 217.4 147.85 217.4 152.25 217.35 161.1 217.25 167.95 216.9 176.75 216.5 178.2 216 178.05 215.8 178.05 215.6 176.4 215.05 168.75 212.65 161.1 210.2 154.5 211.9
M 220.35 118.85
Q 216.8 117.95 212.9 118 207.85 118.05 202.25 119.8 192.5 122.85 186.8 129.25 181.25 135.65 183.1 141.7 183.19375 141.99375 183.3 142.25
L 175.1 145.4
Q 172.7818359375 140.5908203125 165.55 138.75 161.95 137.9 158.1 137.9 153.05 138 147.45 139.7 137.65 142.8 132 149.2 126.4 155.6 128.35 161.6 128.5974609375 162.39609375 128.95 163.1
L 118.2 167.25
Q 115.629296875 163.3984375 109.35 161.8 101.05 159.7 91.25 162.75 81.45 165.8 75.8 172.2 70.2 178.6 72.1 184.65 72.1416015625 184.78046875 72.15 184.9
L 49.15 193.75 50.35 196.7 73.7 187.75
Q 76.3470703125 191.2154296875 82.2 192.75 90.55 194.8 100.3 191.8 110.15 188.7 115.7 182.35 121.22421875 176.0435546875 119.5 170.15
L 130.9 165.8
Q 133.5517578125 168.4234375 138.45 169.7 146.75 171.75 156.5 168.75 158.3 168.15 160.05 167.5 167.4 164.45 171.9 159.3 176.782421875 153.726171875 176 148.5
L 184.95 145.05
Q 187.609765625 148.3142578125 193.25 149.75 201.55 151.85 211.35 148.75 212.15 148.5 212.9 148.25 221.6 145.25 226.75 139.4 232.1064453125 133.28515625 230.65 127.5
L 255 118.2 253.8 115.25 229.45 124.55
Q 226.933203125 120.4759765625 220.35 118.85
M 220.15 120.85
Q 222.85 122.05 214.1 121.7 213.5 121.7 212.9 121.7 204.85 121.65 198.5 124.9 191.65 128.4 189.6 132 187.5 135.6 186.3 134.65 185.1 133.7 188.6 130.1 192.15 126.4 198.8 123.5 205.5 120.6 211.45 120.05 212.2 120 212.9 119.95 217.75 119.7 220.15 120.85
M 75.6 177.55
Q 74.4 176.6 77.85 173 81.4 169.35 88.05 166.4 94.75 163.5 100.65 162.95 106.6 162.45 109.4 163.7 112.15 164.9 103.35 164.6 94.55 164.3 87.75 167.8 80.9 171.3 78.85 174.9 76.8 178.5 75.6 177.55
M 144.95 143.45
Q 151.6 140.55 157.55 140 163.5 139.5 166.25 140.8 168.95 142 160.25 141.65 151.4 141.35 144.65 144.9 137.75 148.35 135.7 151.95 133.6 155.55 132.45 154.65 131.2 153.65 134.7 150.05 138.25 146.4 144.95 143.45
M 190.3 86.2
Q 180.35 88.55 174.25 94.55 168.2 100.5 169.6 106.65 169.672265625 106.9537109375 169.75 107.25
L 161.35 109.8
Q 159.3751953125 104.7646484375 152.3 102.45 148.8 101.3 144.95 101.05 139.9 100.75 134.2 102.05 124.2 104.4 118.1 110.4 112.05 116.35 113.5 122.5 113.694921875 123.3201171875 114 124.05
L 103 127.4
Q 100.7080078125 123.352734375 94.55 121.3 86.45 118.6 76.45 120.9 66.45 123.25 60.35 129.25 54.3 135.2 55.75 141.35 55.7828125 141.4880859375 55.8 141.6
L 32.2 148.75 33.15 151.8 57.1 144.55
Q 59.50625 148.237890625 65.25 150.2 73.4 152.85 83.35 150.55 93.4 148.2 99.4 142.25 105.3728515625 136.375 104.1 130.4
L 115.75 126.85
Q 118.2083984375 129.7130859375 123 131.35 131.15 134 141.1 131.7 142.95 131.25 144.7 130.7 152.25 128.25 157.15 123.4 162.437109375 118.199609375 162.05 112.9
L 171.15 110.15
Q 173.6091796875 113.6029296875 179.15 115.45 187.25 118.15 197.25 115.8 206.9 113.6 212.9 107.95 213.1 107.75 213.3 107.55 219.091796875 101.853125 218.05 96
L 243 88.5 242.05 85.45 217.05 92.95
Q 215.7451171875 90.41953125 212.9 88.65 211 87.45 208.4 86.6 200.35 83.9 190.3 86.2
M 186.6 89.65
Q 193.5 87.25 199.45 87.15 205.4 87.1 208.05 88.55 210.7 89.95 202 89 193.25 88.05 186.2 91.05 179.1 94.05 176.8 97.5 174.45 100.9 173.35 99.9 172.2 98.85 175.95 95.5 179.75 92.1 186.6 89.65
M 62.35 130.15
Q 66.15 126.75 73 124.3 79.9 121.9 85.85 121.8 91.8 121.75 94.45 123.2 97.1 124.6 88.4 123.65 79.65 122.7 72.6 125.7 65.5 128.7 63.2 132.15 60.85 135.55 59.75 134.55 58.6 133.5 62.35 130.15
M 152.85 104.5
Q 155.5 105.9 146.8 104.95 138.05 104 131 107 123.9 110 121.6 113.45 119.25 116.85 118.15 115.85 117 114.8 120.75 111.45 124.55 108.05 131.4 105.6 138.3 103.2 144.25 103.1 150.2 103.05 152.85 104.5 Z"/>
</g>

<path id="Layer0_0_1_STROKES" stroke="#000000" stroke-width="1" stroke-linejoin="round" stroke-linecap="round" fill="none" d="
M 217.075 92.975
L 242.05 85.45 243 88.5 218.075 96.025
M 171.175 110.175
L 162.05 112.925
M 115.75 126.875
L 104.1 130.4
M 57.125 144.575
L 33.15 151.8 32.2 148.75 55.825 141.625
M 103 127.4
L 114 124.075
M 161.35 109.8
L 169.75 107.25
M 229.45 124.575
L 253.8 115.25 255 118.2 230.675 127.525
M 184.95 145.075
L 176.025 148.5
M 130.9 165.8
L 119.525 170.175
M 73.7 187.75
L 50.35 196.7 49.15 193.75 72.175 184.9
M 118.2 167.25
L 128.95 163.125
M 175.1 145.425
L 183.3 142.275"/>

<path id="Layer0_0_2_STROKES" stroke="#FFFFFF" stroke-width="3.2" stroke-linejoin="round" stroke-linecap="round" fill="none" d="
M 107.95 216
Q 107.65 215.9 107.65 215.8 107.65 215.7 108.05 215.6 109.75 214.3 119.4 212.25 129.1 210.15 138.5 211.85 147.85 213.55 154.5 211.9 161.1 210.2 168.75 212.65 176.4 215.05 178.05 215.6 178.4 215.7 178.4 215.8 178.4 215.9 178.2 216 178.4 217.1 178.4 218.25 178.4 219.45 178.05 220.6 176.6 226.35 167.95 230.5 157.6 236.05 143.05 236.05 128.4 236.05 118.05 230.5 107.65 225.5 107.65 218.25 107.65 217.1 107.95 216 107.95 215.8 108.05 215.6
M 178.2 216
Q 176.75 216.5 167.95 216.9 161.1 217.25 152.25 217.35 147.85 217.4 143.05 217.4 128.4 217.4 118.05 216.9 109.3 216.5 107.95 216
M 178.05 215.6
Q 178.05 215.8 178.2 216"/>
</defs>

<g transform="matrix( 0.2378692626953125, 0, 0, 0.2378692626953125, 0.3,0.3) ">
<g transform="matrix( 1, 0, 0, 1, 0,0) ">
<use xlink:href="#Layer0_0_FILL"/>

<use xlink:href="#Layer0_0_1_STROKES"/>

<use xlink:href="#Layer0_0_2_STROKES"/>
</g>
</g>
</svg>
