
<svg xmlns="http://www.w3.org/2000/svg" version="1.1" xmlns:xlink="http://www.w3.org/1999/xlink" preserveAspectRatio="none" x="0px" y="0px" width="71px" height="93px" viewBox="0 0 71 93">
<defs>
<g id="Layer0_0_FILL">
<path fill="#000000" stroke="none" d="
M 270.05 338.95
L 266.2 338.95 266.2 348.15 261.55 348.15 261.55 351.35 266.2 351.35 266.2 375.6
Q 266.2 379.25 267.7 380.75 269.2 382.25 272.05 382.2 273.5 382.2 274.65 381.9 275.8 381.6 276.5 381.45
L 276.5 378.3
Q 275.7 378.5 274.95 378.6 274.15 378.75 273.35 378.75 271.8 378.75 271.05 378.25 270.4 377.75 270.2 376.75 270 375.7 270.05 374.1
L 270.05 351.35 276.25 351.35 276.25 348.15 270.05 348.15 270.05 338.95
M 224.1 351.4
L 224.1 347.25
Q 219.95 347.2 217.4 348.8 214.8 350.45 213.3 354.35
L 213.15 354.35 213.15 348.15 209.3 348.15 209.3 381.3 213.15 381.3 213.15 365.05
Q 213.15 361.25 214.05 358.15 215.05 355.05 217.4 353.2 219.8 351.35 224.1 351.4
M 229.35 356
Q 227.55 359.95 227.55 364.85 227.55 369.8 229.1 373.7 230.7 377.6 234.1 379.9 237.45 382.15 242.75 382.2 246.95 382.2 249.8 380.75 252.65 379.25 254.4 376.75 256.15 374.3 257.1 371.1
L 252.8 371.1
Q 251.85 374.8 249.2 376.75 246.55 378.75 242.75 378.75 239.05 378.7 236.6 376.95 234.1 375.2 232.85 372.2 231.6 369.25 231.6 365.6
L 257.35 365.6
Q 257.3 356.65 253.45 351.95 249.6 347.25 242.75 347.25 238 347.3 234.6 349.7 231.2 352 229.35 356
M 237.05 352.35
Q 239.35 350.75 242.75 350.7 246.2 350.75 248.55 352.3 250.85 353.85 252.05 356.5 253.25 359.15 253.25 362.45
L 231.6 362.45
Q 232 359.25 233.35 356.6 234.7 353.95 237.05 352.35
M 199.45 335.2
L 195.6 335.2 195.6 353.45
Q 193.7 350.45 190.55 348.85 187.35 347.25 183.8 347.25 178.7 347.3 175.45 349.75 172.2 352.15 170.6 356.1 169 360.1 169 364.8 168.95 369.75 170.5 373.65 172.05 377.6 175.35 379.85 178.65 382.15 183.95 382.2 186.1 382.2 188.35 381.45 190.55 380.65 192.45 379.15 194.35 377.65 195.5 375.5
L 195.6 375.5 195.6 381.3 199.45 381.3 199.45 335.2
M 194.3 357.7
Q 195.6 360.8 195.6 364.6 195.6 368.65 194.35 371.85 193.05 375 190.55 376.85 188.05 378.7 184.45 378.75 181.15 378.75 178.6 377.25 176.1 375.7 174.6 372.8 173.15 369.95 173.1 365.75 172.95 361.55 174.1 358.15 175.3 354.75 177.85 352.75 180.45 350.75 184.45 350.7 187.95 350.75 190.45 352.65 192.95 354.5 194.3 357.7
M 158.6 351.95
Q 154.75 347.25 147.9 347.25 143.15 347.3 139.75 349.7 136.35 352 134.5 356 132.7 359.95 132.7 364.85 132.7 369.8 134.25 373.7 135.85 377.6 139.25 379.9 142.6 382.15 147.9 382.2 152.1 382.2 154.95 380.75 157.8 379.25 159.55 376.75 161.3 374.3 162.25 371.1
L 157.95 371.1
Q 157 374.8 154.35 376.75 151.7 378.75 147.9 378.75 144.2 378.7 141.75 376.95 139.25 375.2 138 372.2 136.75 369.25 136.75 365.6
L 162.5 365.6
Q 162.45 356.65 158.6 351.95
M 142.2 352.35
Q 144.5 350.75 147.9 350.7 151.35 350.75 153.7 352.3 156 353.85 157.2 356.5 158.4 359.15 158.4 362.45
L 136.75 362.45
Q 137.15 359.25 138.5 356.6 139.85 353.95 142.2 352.35
M 111.55 381.3
L 115.85 381.3 128.7 348.15 124.55 348.15 113.8 376.55 103.05 348.15 98.9 348.15 111.55 381.3
M 80 347.25
Q 74.9 347.3 71.45 349.6 68.05 351.95 66.35 355.9 64.65 359.85 64.65 364.7 64.7 370.5 66.75 374.35 68.8 378.25 72.25 380.2 75.75 382.15 80 382.2 84.65 382.2 88.1 380 91.55 377.85 93.45 373.95 95.35 370 95.35 364.7 95.35 359.8 93.65 355.85 92 351.95 88.6 349.6 85.15 347.3 80 347.25
M 73.5 352.75
Q 76 350.75 80 350.7 84.05 350.75 86.5 352.6 89 354.45 90.1 357.6 91.25 360.75 91.25 364.7 91.3 368.35 90.15 371.5 89 374.7 86.5 376.7 84 378.7 80 378.75 76.35 378.7 73.8 376.95 71.3 375.2 70 372 68.75 368.9 68.75 364.7 68.7 361.1 69.85 357.9 71 354.75 73.5 352.75
M 57.1 335.2
L 52.75 335.2 52.75 355 25.45 355 25.45 335.2 21.15 335.2 21.15 381.3 25.45 381.3 25.45 358.7 52.75 358.7 52.75 381.3 57.1 381.3 57.1 335.2
M 296.8 148.4
Q 296.8 86.95 253.3 43.45 209.85 0 148.4 0 140.3 0 132.5 0.75 112.45 2.7 94.5 9.65 66.45 20.45 43.45 43.45 38.15 48.75 33.5 54.35 25.65 63.75 19.6 73.95 11.25 88.05 6.45 103.7 5.7 106.1 5.05 108.55 4.7 109.8 4.4 111.1 3.3 115.45 2.5 119.95 1.95 123.05 1.5 126.2 0 137 0 148.4 0 159.85 1.5 170.65 1.95 173.8 2.5 176.9 3.3 181.35 4.4 185.7 4.7 186.95 5.05 188.2 5.7 190.65 6.45 193.05 10.05 204.75 15.6 215.6 22.85 229.7 33.5 242.45 38.15 248 43.45 253.3 66.45 276.3 94.5 287.15 112.45 294.1 132.5 296.05 140.3 296.8 148.4 296.8 209.85 296.8 253.3 253.3 296.8 209.85 296.8 148.4
M 170.45 97.15
L 163.75 97.45 163.75 100.2 159.05 100.55
Q 158.95546875 99.137890625 158.85 97.7
L 155.15 97.85
Q 155.007421875 99.383984375 154.85 100.9
L 141.9 101.9
Q 141.6341796875 100.20390625 141.35 98.5
L 33.8 103.45 33.4 98.55 213.7 91.2 213.95 95.15 201.35 95.75
Q 201.2744140625 96.519921875 201.15 97.3
L 188.55 98.25
Q 188.4525390625 97.3078125 188.3 96.35
L 182.7 96.6
Q 182.58125 97.669921875 182.45 98.75
L 170.8 99.65
Q 170.645703125 98.40859375 170.45 97.15
M 189.65 107
L 200.25 105.95
Q 198.0642578125 127.734765625 198.25 149.5 205.0048828125 150.3892578125 211.1 151.6 236.4 156.55 236.4 163.55 236.4 164.05 236.3 164.55
L 236.3 164.6
Q 236.4 167.15 236.4 169.75 236.4 205.55 211.1 230.85 199.9236328125 242.0263671875 186.7 248.25
L 186.8 250.4
Q 159.35 259.05 132.5 255.25 121.4 253.7 110.4 250
L 110.3 246.8
Q 101.9865234375 242.42578125 94.5 236.05 91.65 233.6 88.9 230.85 63.6 205.55 63.6 169.75 63.6 167.15 63.75 164.6
L 63.75 164.55
Q 63.6 164.05 63.6 163.55 63.6 156.55 88.9 151.6 91.65 151.05 94.5 150.6 103.3 149.1 113.2 148.2 122.35 147.35 132.5 147 138.626171875 146.7447265625 145.1 146.65 145.29765625 129.2392578125 143.2 111.65
L 154.1 110.55
Q 152.9142578125 128.605078125 153 146.65 156.7740234375 146.679296875 160.4 146.75 160.4884765625 128.484765625 159.55 110
L 163.75 109.6 163.75 146.85
Q 168.85859375 146.98984375 173.7 147.25 173.8171875 128.0294921875 171.85 108.8
L 181.45 107.85
Q 179.5884765625 127.7416015625 179.7 147.6 185.919140625 148.06328125 191.7 148.7 191.90546875 127.870703125 189.65 107
M 213.65 98.65
L 213.9 101.95 34.05 118.6 33.45 113.7 33.5 113.7 213.65 98.65
M 160.35 153
Q 156.791015625 152.9177734375 153.1 152.9 153.2951171875 163.5134765625 153.95 174.1 156.8775390625 174.09140625 159.7 174 160.2005859375 163.5427734375 160.35 153
M 113.2 154.75
Q 107.15 155.45 101.7 156.35 97.7 157 94.5 157.75 81.25 160.75 81.25 164.65 81.25 165 81.4 165.35 81.25 165.4 81.25 165.45 81.25 166.2 94.5 168.95 97.6 169.6 101.45 170.35 107 171.4 113.2 172.2 122.15 173.3 132.5 173.8 137.788671875 174.0474609375 143.45 174.1 144.638671875 163.5654296875 145 152.95 138.524609375 153.027734375 132.5 153.3 122.2 153.75 113.2 154.75
M 173.65 153.5
Q 168.849609375 153.2265625 163.75 153.05
L 163.75 173.9
Q 168.3171875 173.7232421875 172.65 173.45 173.4232421875 163.4744140625 173.65 153.5
M 190.75 171.75
Q 191.380078125 163.4087890625 191.6 155.05 185.96171875 154.377734375 179.75 153.9 179.9828125 163.3791015625 180.65 172.85 185.9005859375 172.3890625 190.75 171.75
M 200.6 156.35
Q 199.5134765625 156.17265625 198.4 156 198.594921875 163.2341796875 199.05 170.45 199.6794921875 170.3578125 200.3 170.25 221.05 166.4 221.05 165.45 221.05 165.4 220.95 165.35 221.05 165 221.05 164.65 221.05 159.8 200.6 156.35 Z"/>

<path fill="#FFFFFF" stroke="none" d="
M 213.9 101.95
L 213.65 98.65 33.5 113.7 33.45 113.7 34.05 118.6 213.9 101.95
M 200.25 105.95
L 189.65 107
Q 191.90546875 127.870703125 191.7 148.7 185.919140625 148.06328125 179.7 147.6 179.5884765625 127.7416015625 181.45 107.85
L 171.85 108.8
Q 173.8171875 128.0294921875 173.7 147.25 168.85859375 146.98984375 163.75 146.85
L 163.75 109.6 159.55 110
Q 160.4884765625 128.484765625 160.4 146.75 156.7740234375 146.679296875 153 146.65 152.9142578125 128.605078125 154.1 110.55
L 143.2 111.65
Q 145.29765625 129.2392578125 145.1 146.65 138.626171875 146.7447265625 132.5 147 122.35 147.35 113.2 148.2 103.3 149.1 94.5 150.6 91.65 151.05 88.9 151.6 63.6 156.55 63.6 163.55 63.6 164.05 63.75 164.55
L 63.75 164.6
Q 63.6 167.15 63.6 169.75 63.6 205.55 88.9 230.85 91.65 233.6 94.5 236.05 101.9865234375 242.42578125 110.3 246.8
L 110.4 250
Q 121.4 253.7 132.5 255.25 159.35 259.05 186.8 250.4
L 186.7 248.25
Q 199.9236328125 242.0263671875 211.1 230.85 236.4 205.55 236.4 169.75 236.4 167.15 236.3 164.6
L 236.3 164.55
Q 236.4 164.05 236.4 163.55 236.4 156.55 211.1 151.6 205.0048828125 150.3892578125 198.25 149.5 198.0642578125 127.734765625 200.25 105.95
M 198.4 156
Q 199.5134765625 156.17265625 200.6 156.35 221.05 159.8 221.05 164.65 221.05 165 220.95 165.35 221.05 165.4 221.05 165.45 221.05 166.4 200.3 170.25 199.6794921875 170.3578125 199.05 170.45 198.594921875 163.2341796875 198.4 156
M 191.6 155.05
Q 191.380078125 163.4087890625 190.75 171.75 185.9005859375 172.3890625 180.65 172.85 179.9828125 163.3791015625 179.75 153.9 185.96171875 154.377734375 191.6 155.05
M 163.75 153.05
Q 168.849609375 153.2265625 173.65 153.5 173.4232421875 163.4744140625 172.65 173.45 168.3171875 173.7232421875 163.75 173.9
L 163.75 153.05
M 101.7 156.35
Q 107.15 155.45 113.2 154.75 122.2 153.75 132.5 153.3 138.524609375 153.027734375 145 152.95 144.638671875 163.5654296875 143.45 174.1 137.788671875 174.0474609375 132.5 173.8 122.15 173.3 113.2 172.2 107 171.4 101.45 170.35 97.6 169.6 94.5 168.95 81.25 166.2 81.25 165.45 81.25 165.4 81.4 165.35 81.25 165 81.25 164.65 81.25 160.75 94.5 157.75 97.7 157 101.7 156.35
M 153.1 152.9
Q 156.791015625 152.9177734375 160.35 153 160.2005859375 163.5427734375 159.7 174 156.8775390625 174.09140625 153.95 174.1 153.2951171875 163.5134765625 153.1 152.9
M 163.75 97.45
L 170.45 97.15
Q 170.645703125 98.40859375 170.8 99.65
L 182.45 98.75
Q 182.58125 97.669921875 182.7 96.6
L 188.3 96.35
Q 188.4525390625 97.3078125 188.55 98.25
L 201.15 97.3
Q 201.2744140625 96.519921875 201.35 95.75
L 213.95 95.15 213.7 91.2 33.4 98.55 33.8 103.45 141.35 98.5
Q 141.6341796875 100.20390625 141.9 101.9
L 154.85 100.9
Q 155.007421875 99.383984375 155.15 97.85
L 158.85 97.7
Q 158.95546875 99.137890625 159.05 100.55
L 163.75 100.2 163.75 97.45 Z"/>
</g>
</defs>

<g transform="matrix( 0.239166259765625, 0, 0, 0.239166259765625, 0.15,0.15) ">
<g transform="matrix( 1, 0, 0, 1, 0,0) ">
<use xlink:href="#Layer0_0_FILL"/>
</g>
</g>
</svg>
