<?xml version="1.0" encoding="utf-8"?>
<!-- Generator: Adobe Illustrator 15.0.0, SVG Export Plug-In  -->
<!DOCTYPE svg PUBLIC "-//W3C//DTD SVG 1.1//EN" "http://www.w3.org/Graphics/SVG/1.1/DTD/svg11.dtd" [
	<!ENTITY ns_flows "http://ns.adobe.com/Flows/1.0/">
]>
<svg version="1.1"
	 xmlns="http://www.w3.org/2000/svg" xmlns:xlink="http://www.w3.org/1999/xlink" xmlns:a="http://ns.adobe.com/AdobeSVGViewerExtensions/3.0/"
	 x="0px" y="0px" width="709px" height="160px" viewBox="0 0 709 160" enable-background="new 0 0 709 160" xml:space="preserve">
<defs>
</defs>
<path fill-rule="evenodd" clip-rule="evenodd" fill="#2C2276" d="M140.638,83.778c21.864,17.998,29.829,45.386,31.514,72.949
	l0.14,2.294H98.378l-0.099-2.059c-0.958-20.021-5.485-48.468-29.545-50.936v52.994H0V9.106h68.734v48.418
	c8.829-1.163,15.977-5.19,21.119-12.815c6.472-9.633,8.229-22.075,8.229-33.441V9.106h69.971v2.162
	c0,14.807-1.569,30.853-7.125,44.704C156.471,66.973,149.682,76.256,140.638,83.778 M296.359,112.131l10.351-31.337h20.305
	l10.24,30.962l10.243-30.999l32.818,0.036l-26.35,78.227h-27.134l-9.798-28.874l-9.746,28.874h-27.1l-27.627-78.227h33.456
	L296.359,112.131z M423.057,130.334h28.679v28.687h-65.73V80.794h37.052V130.334z M667.983,138.881v20.14h-37.02V80.794h26.703
	l13.877,28.063l0.05-28.063h37.068v78.805h-28.098L667.983,138.881z M583.529,133.858c7.689,0,13.926-6.236,13.926-13.926
	s-6.236-13.925-13.926-13.925s-13.926,6.235-13.926,13.925S575.839,133.858,583.529,133.858z M583.529,160.142
	c22.203,0,40.21-18.006,40.21-40.21c0-22.203-18.007-40.209-40.21-40.209c-22.204,0-40.21,18.006-40.21,40.209
	C543.319,142.136,561.325,160.142,583.529,160.142z M496.179,133.858c7.689,0,13.925-6.236,13.925-13.926
	s-6.235-13.925-13.925-13.925c-7.69,0-13.926,6.235-13.926,13.925S488.489,133.858,496.179,133.858z M496.179,160.142
	c22.203,0,40.209-18.006,40.209-40.21c0-22.203-18.006-40.209-40.209-40.209c-22.204,0-40.211,18.006-40.211,40.209
	C455.968,142.136,473.975,160.142,496.179,160.142z M215.971,133.858c7.69,0,13.926-6.236,13.926-13.926
	s-6.236-13.925-13.926-13.925c-7.689,0-13.925,6.235-13.925,13.925S208.281,133.858,215.971,133.858z M215.971,160.142
	c22.204,0,40.21-18.006,40.21-40.21c0-22.203-18.007-40.209-40.21-40.209c-22.203,0-40.209,18.006-40.209,40.209
	C175.761,142.136,193.768,160.142,215.971,160.142z"/>
<path fill="#DD2627" d="M133.972,84.317c23.626-21.24,30.096-43.556,29.316-71.674h-60.703
	c-0.295,23.979-9.156,48.884-37.988,49.307V12.643H4.014V155.47h60.587l-0.004-54.052c29.032-0.229,37.242,28.968,38.174,54.052
	h65.151C166.163,130.111,156.178,98.161,133.972,84.317 M309.269,84.331l-9.547,28.9l-3.365,10.187l-3.361-10.187l-9.538-28.9
	h-25.894l25.124,71.14h22.069l8.928-26.451l3.343-9.904l3.356,9.891l8.98,26.465h21.947l24.09-71.159l-25.342-0.028l-9.442,28.574
	l-3.362,10.174l-3.365-10.174l-9.434-28.526H309.269z M448.193,133.872h-25.136h-3.543v-3.544V84.331l-29.763-0.01v71.14
	l58.441,0.01V133.872z M664.439,155.47v-29.226l18.322,29.835l22.034-0.03V84.316l-29.681,0v38.142l-19.761-38.142h-20.847v71.153
	H664.439z M583.529,137.38v0.014l0,0V137.38c-4.832,0-9.198-1.95-12.352-5.104c-3.153-3.152-5.104-7.52-5.104-12.351h-0.014v-0.001
	l0,0h0.014c0-4.832,1.95-9.198,5.104-12.352c3.152-3.153,7.52-5.104,12.352-5.104v-0.014l0,0l0,0v0.014
	c4.832,0,9.199,1.95,12.352,5.104c3.152,3.152,5.104,7.52,5.104,12.352h0.014l0,0v0.001h-0.014c0,4.831-1.951,9.198-5.104,12.351
	C592.728,135.43,588.361,137.38,583.529,137.38z M583.529,156.592L583.529,156.592v0.014c10.114,0,19.282-4.11,25.926-10.755
	c6.645-6.644,10.755-15.811,10.755-25.925h-0.015v-0.001l0,0h0.015c0-10.114-4.11-19.282-10.755-25.926
	c-6.644-6.645-15.812-10.754-25.926-10.754v0.014l0,0l0,0v-0.014c-10.114,0-19.282,4.11-25.926,10.754
	c-6.645,6.645-10.755,15.812-10.755,25.926h0.014l0,0v0.001h-0.014c0,10.114,4.11,19.281,10.755,25.925
	c6.644,6.645,15.811,10.755,25.926,10.755V156.592z M496.179,137.38v0.014l0,0h-0.001L496.179,137.38
	c-4.833,0-9.199-1.95-12.353-5.104c-3.152-3.152-5.103-7.52-5.104-12.351h-0.014v-0.001l0,0h0.014
	c0.001-4.832,1.951-9.198,5.104-12.352c3.153-3.153,7.52-5.104,12.352-5.104v-0.014h0.001l0,0v0.014
	c4.832,0,9.198,1.95,12.352,5.104c3.152,3.152,5.103,7.52,5.104,12.352h0.014l0,0v0.001h-0.014
	c-0.001,4.831-1.951,9.198-5.104,12.351C505.377,135.43,501.011,137.38,496.179,137.38z M496.179,156.592L496.179,156.592v0.014
	c10.114,0,19.281-4.11,25.926-10.755c6.644-6.644,10.754-15.811,10.754-25.925h-0.014v-0.001l0,0h0.014
	c0-10.114-4.11-19.282-10.754-25.926c-6.645-6.645-15.812-10.754-25.926-10.754v0.014l0,0h-0.001v-0.014
	c-10.114,0-19.281,4.11-25.926,10.754c-6.644,6.645-10.754,15.812-10.754,25.926h0.014l0,0v0.001h-0.014
	c0,10.114,4.11,19.281,10.754,25.925c6.645,6.645,15.812,10.755,25.926,10.755L496.179,156.592L496.179,156.592z M215.971,137.38
	v0.014h0h0L215.971,137.38c-4.833,0-9.199-1.95-12.352-5.104c-3.153-3.152-5.104-7.52-5.104-12.351h-0.014v-0.001l0,0h0.014
	c0-4.832,1.95-9.198,5.103-12.352s7.52-5.104,12.352-5.104v-0.014l0,0h0v0.014c4.832,0,9.198,1.95,12.352,5.104
	c3.153,3.152,5.103,7.52,5.103,12.352h0.014l0,0v0.001h-0.014c0,4.831-1.95,9.198-5.103,12.351
	C225.17,135.43,220.803,137.38,215.971,137.38z M215.971,156.592L215.971,156.592l0,0.014c10.114,0,19.282-4.11,25.926-10.755
	c6.644-6.644,10.754-15.811,10.754-25.925h-0.014v-0.001l0,0h0.014c0-10.114-4.11-19.282-10.754-25.926
	c-6.644-6.645-15.812-10.754-25.926-10.754v0.014h0l0,0v-0.014c-10.114,0-19.282,4.11-25.926,10.754s-10.754,15.812-10.754,25.926
	h0.014l0,0v0.001h-0.014c0,10.114,4.11,19.281,10.754,25.925c6.644,6.645,15.812,10.755,25.925,10.755L215.971,156.592
	L215.971,156.592z"/>
<path fill="#2C2276" d="M527.708,44.75c2.336,0,4.54-2,6.611-5.988c2.072-3.988,3.102-7.665,3.102-11.03
	c0-1.317-0.287-2.335-0.874-3.077c-0.587-0.731-1.365-1.103-2.348-1.103c-2.335,0-4.563,1.988-6.646,5.964
	c-2.096,3.976-3.149,7.641-3.149,10.982c0,1.27,0.311,2.288,0.934,3.078C525.96,44.355,526.751,44.75,527.708,44.75 M628.331,44.75
	c2.336,0,4.54-2,6.611-5.988c2.072-3.988,3.102-7.665,3.102-11.03c0-1.317-0.287-2.335-0.874-3.077
	c-0.587-0.731-1.365-1.103-2.348-1.103c-2.335,0-4.563,1.988-6.646,5.964c-2.096,3.976-3.149,7.641-3.149,10.982
	c0,1.27,0.311,2.288,0.934,3.078C626.583,44.355,627.374,44.75,628.331,44.75z M449.626,36.266c5.988-1.689,8.982-4.803,8.982-9.342
	c0-2.239-0.827-3.365-2.455-3.365c-1.546,0-3.019,1.173-4.432,3.521C450.321,29.439,449.626,32.493,449.626,36.266z M515.603,43.201
	c-2.784,2.73-5.208,4.76-7.27,6.088c-2.144,1.39-4.192,2.084-6.132,2.084c-2.013,0-3.653-0.839-4.898-2.54
	c-0.999-1.35-1.596-3.036-1.8-5.051c-5.788,7.236-18.566,10.011-25.025,5.834c-1.308-0.846-1.964-1.749-1.964-2.707
	c0-0.563,0.351-1.119,1.649-2.681c1.3-1.563,2.228-2.359,2.778-2.359c0.755,0,1.425,0.958,2,2.886
	c0.587,1.917,1.593,2.855,3.018,2.875c3.659,0.05,5.904-2.283,5.904-6.251c0-1.473-0.802-3.437-2.395-5.892
	c-1.581-2.455-2.635-4.516-3.149-6.18c-5.347,8.621-14.613,22.001-26.131,22.001c-3.186,0-5.748-1.019-7.7-3.055
	c-1.393-1.434-2.283-3.199-2.686-5.287c-2.69,2.875-5.091,4.985-7.201,6.353c-2.156,1.377-4.336,2.06-6.527,2.06
	c-2.299,0-4.144-0.743-5.532-2.24c-1.39-1.497-2.084-3.461-2.084-5.893c0-1.449,0.335-3.449,0.993-6
	c0.671-2.551,1.007-4.503,1.007-5.868c0-2.937-3.117-4.147-5.05-2.983c-0.482,2.788-1.003,5.133-1.562,7.042
	c-0.838,2.815-2.275,5.474-4.335,7.977c-2.061,2.503-4.552,4.455-7.462,5.868c-2.909,1.401-5.916,2.096-9.029,2.096
	c-3.365,0-5.893-0.803-7.558-2.432c-1.677-1.628-2.515-3.509-2.515-5.628c0-0.683,0.264-1.293,0.79-1.833
	c0.527-0.539,1.605-1.27,3.246-2.204c1.641-0.934,2.767-1.413,3.365-1.413c0.778,0,1.162,0.455,1.162,1.341
	c0,0.204-0.12,1.006-0.372,2.383c-0.239,1.377-0.371,2.204-0.371,2.455c0,1.305,0.384,2.395,1.126,3.246
	c0.754,0.85,1.7,1.281,2.851,1.281c2.431,0,4.575-1.545,6.455-4.635c1.868-3.09,3.186-7.641,3.939-13.665
	c0.767-6.023,1.761-10.395,3.007-13.125c1.233-2.719,3.042-4.922,5.413-6.587c2.321-1.633,5.348-2.896,8.336-1.318
	c-1.917,1.569-3.198,3.234-3.857,5.019c-0.658,1.772-1.317,5.042-1.964,9.808c-0.031,0.223,12.757,2.036,12.656-10.278
	c-0.058-7.089-4.681-10.584-12.728-10.584c-5.126,0-9.677,1.389-13.653,4.156c-3.976,2.779-5.964,5.869-5.964,9.282
	c0,1.94,0.958,3.401,2.874,4.383c0.923,0.467,1.378,1.042,1.378,1.725c0,0.611-0.899,1.305-2.672,2.083
	c-1.772,0.791-2.993,1.174-3.652,1.174c-1.029,0-1.952-0.67-2.79-2.012c-0.826-1.353-1.246-2.886-1.246-4.623
	C392.278,6.59,408.547,0,419.238,0c6.359,0,11.522,1.878,15.064,4.612c3.548,2.738,5.318,6.06,5.318,9.964
	c0,2.455-0.979,4.841-2.935,7.162c-1.949,2.313-5.382,4.356-11.095,5.638c2.084,1.197,3.199,2.244,4.148,3.643
	c0.942,1.391,1.425,3.138,1.425,5.246c0,1.162-0.132,2.479-0.371,3.928c-0.251,1.449-0.371,2.371-0.371,2.767
	c0,2.012,0.79,3.018,2.384,3.018c2.067,0,4.992-2.254,8.773-6.762c0.405-8.439,7.396-18.46,16.574-18.46
	c2.168,0,3.916,0.551,5.221,1.677c1.318,1.126,1.965,2.599,1.965,4.419c0,4.851-5.138,8.779-15.438,11.796
	c0.935,4.563,3.377,6.812,7.329,6.839c7.268,0.05,18.81-15.734,21.543-23.294c1.617-0.419,3.234-0.767,4.875-1.042
	c1.641-0.263,2.622-0.395,2.945-0.395c0.24,0,0.348,0.084,0.348,0.275c0,0.348-0.084,0.719-0.275,1.09
	c-0.371,1.078-0.563,2.108-0.563,3.09c0,1.209,0.703,2.877,2.107,4.982c2.079,3.114,4.149,10.417,1.076,15.5
	c2.471-1.322,4.054-3.223,6.252-5.651c0.301-2.356,0.654-4.153,1.644-7.544l1.546-5.293l-2.707,0.144l1.126-5.509l3.329-0.144
	l3.293-10.946l9.414-1.928l-3.581,12.204l4.874-0.275l-1.161,5.401l-5.438,0.419l-2.348,7.856c-0.79,2.743-1.197,4.911-1.197,6.527
	c0,1.102,0.275,2,0.826,2.683c0.551,0.695,1.258,1.042,2.12,1.042c1.197,0,2.383-0.383,3.545-1.138c1.11-0.725,2.714-2.178,4.8-4.37
	c0.322-2.711,1.246-5.319,2.767-7.822c1.929-3.186,4.407-5.76,7.426-7.724c3.018-1.964,5.677-2.946,8-2.946
	c2.922,0,4.97,1.341,6.132,4.036l7.162-3.964h1.964l-3.09,10.275c-1.593,5.174-2.384,8.719-2.384,10.635
	c0,2.012,0.719,3.018,2.144,3.018c0.911,0,1.917-0.491,3.019-1.461c1.02-0.907,2.437-2.253,4.242-4.05
	c0.62-4.39,2.152-9.884,4.596-16.489l9.342-1.856c-3.845,11.197-5.761,18.395-5.761,21.569c0,2.251,0.851,3.377,2.526,3.377
	c1.223,0,2.731-0.994,4.527-2.97c1.809-1.976,2.922-3.7,3.365-5.173l4.6-14.946l9.544-1.928c-2.203,7.042-3.712,11.988-4.526,14.838
	c-0.814,2.851-1.222,4.85-1.222,6c0,2.204,0.743,3.293,2.239,3.293c4.041,0,10.474-8.365,12.478-11.33
	c-2.012-0.886-3.019-2.204-3.019-3.964c0-1.796,0.611-3.725,1.845-5.772c1.222-2.048,2.923-3.066,5.066-3.066
	c1.832,0,2.742,0.934,2.742,2.802c0,1.473-0.527,3.581-1.581,6.312c3.881-0.419,7.27-3.389,10.18-8.91l3.186-0.131l-3.257,8.982
	c-1.366,3.784-2.24,6.359-2.636,7.736c-0.395,1.365-0.598,2.575-0.598,3.629c0,0.982,0.227,1.761,0.682,2.347
	c0.455,0.587,1.078,0.874,1.845,0.874c0.838,0,1.653-0.287,2.419-0.85c0.724-0.534,2.265-1.946,4.642-4.22
	c0.307-2.765,1.236-5.423,2.784-7.972c1.929-3.186,4.407-5.76,7.426-7.724c3.018-1.964,5.677-2.946,8-2.946
	c2.922,0,4.97,1.341,6.132,4.036l7.162-3.964h1.964l-3.09,10.275c-1.593,5.174-2.384,8.719-2.384,10.635
	c0,2.012,0.719,3.018,2.144,3.018c0.911,0,1.916-0.491,3.019-1.461c1.031-0.918,2.471-2.286,4.308-4.115
	c0.22-1.855,0.557-3.659,1.01-5.406c0.875-3.365,2.288-7.162,4.229-11.365l8.563-1.653c-1.796,4.838-2.982,8.659-3.545,11.437
	c3.833-4.275,6.887-7.245,9.138-8.898c2.264-1.641,4.264-2.467,6.024-2.467c1.186,0,2.18,0.443,2.981,1.354
	c0.791,0.898,1.186,2.024,1.186,3.377c0,2.251-1.006,5.94-3.018,11.09c-1.377,3.533-2.071,5.82-2.071,6.874
	c0,1.401,0.574,2.108,1.725,2.108c1.682,0,4.369-2.172,8.073-6.527c0.279-1.859,0.776-4.013,1.493-6.455l1.545-5.294l-2.707,0.144
	l1.126-5.509l3.329-0.144l3.294-10.946l9.413-1.928l-3.58,12.204l4.873-0.276l-1.161,5.402l-5.438,0.419l-2.347,7.856
	c-0.791,2.743-1.198,4.91-1.198,6.527c0,1.102,0.275,2,0.827,2.683c0.551,0.695,1.257,1.042,2.119,1.042
	c1.198,0,2.383-0.383,3.545-1.138c1.174-0.766,2.898-2.347,5.162-4.754v4.036c-2.946,2.922-5.497,5.078-7.653,6.467
	c-2.144,1.389-4.191,2.084-6.132,2.084c-2.012,0-3.652-0.838-4.897-2.539c-1.093-1.478-1.706-3.354-1.848-5.628
	c-5.214,5.396-9.692,8.096-13.456,8.096c-1.568,0-2.826-0.552-3.785-1.641c-0.958-1.102-1.437-2.575-1.437-4.419
	c0-2.503,1.03-6.335,3.09-11.473c1.09-2.767,1.641-4.516,1.641-5.27c0-0.743-0.287-1.125-0.874-1.125
	c-0.323,0-0.755,0.167-1.294,0.491c-0.491,0.335-1.065,0.791-1.725,1.377c-0.586,0.539-1.233,1.186-1.964,1.964
	c-0.635,0.647-1.306,1.401-2.036,2.24l-1.964,2.288c-0.862,1.042-1.401,2.156-1.616,3.329c-0.348,1.988-0.587,3.809-0.695,5.473
	c-0.071,1.233-0.107,2.91-0.107,5.018l-7.761,1.82c-0.252-3.149-0.383-5.509-0.383-7.054c0-0.332,0.004-0.662,0.011-0.991
	c-3.419,3.22-5.897,5.35-7.425,6.368c-1.605,1.066-3.149,1.605-4.623,1.605c-3.7,0-5.438-3.258-5.233-9.785
	c-2.336,3.341-4.491,5.809-6.467,7.401c-1.977,1.593-4.024,2.384-6.133,2.384c-2.048,0-3.796-0.958-5.245-2.887
	c-1.088-1.459-1.763-3.172-2.027-5.138c-5.605,5.397-9.952,8.096-13.039,8.096c-1.426,0-2.635-0.599-3.617-1.808
	c-0.981-1.198-1.473-2.695-1.473-4.468c0-3.305,1.772-7.724,5.306-13.27c-1.737,0.899-3.629,1.51-5.689,1.869
	c-3.155,5.815-12.88,17.605-20.513,17.605c-1.845,0-3.27-0.731-4.264-2.204s-1.484-3.473-1.484-6
	c-2.575,2.826-4.887,4.91-6.911,6.263c-2.036,1.342-4.023,2.012-5.976,2.012c-1.772,0-3.198-0.73-4.275-2.204
	c-1.045-1.427-1.582-3.348-1.615-5.764c-3.377,3.177-5.828,5.281-7.343,6.291c-1.605,1.066-3.15,1.605-4.623,1.605
	c-3.7,0-4.809-2.316-4.555-8.035c-2.514,3.597-8.558,8.035-13.278,8.035c-2.048,0-3.796-0.958-5.245-2.887
	C516.535,46.991,515.853,45.229,515.603,43.201z"/>
<line fill="#2C2276" stroke="#283375" stroke-width="2" x1="708.283" y1="62.751" x2="380.529" y2="62.751"/>
</svg>
